<svg xmlns="http://www.w3.org/2000/svg" viewBox="0 0 2000 2000"><defs><style>.cls-1{fill:#fff;}.cls-2{fill:none;stroke:#fff;stroke-miterlimit:10;stroke-width:6px;}</style></defs><g id="Capa_6" data-name="Capa 6"><path class="cls-1" d="M1799,1095a73.39,73.39,0,0,0-20-30c-12.72-11.38-26-15-34-17-37.32-9.56-71.7,6.23-83,12a458.73,458.73,0,0,0,31-39c7.39-10.42,13.88-19.64,21-33a219.44,219.44,0,0,0,16-37,216.15,216.15,0,0,0,10-62c.5-27,.8-43.35-9-61-7.18-12.93-17.59-21.07-26.08-26.4a50.82,50.82,0,0,0-15.5-6.44A147.73,147.73,0,0,0,1648,791c-16.32.79-32.28,3.94-63,15a681.19,681.19,0,0,0-88,39q-1-45.5-2-91l-95,55q1,41.5,2,83l-76,44c-.33-27.33-.67-55.67-1-83-30,17.67-60,34.33-90,52,.33,28.67.67,59.33,1,88-70.67,39.33-143.33,78.67-214,118v101c32.67-19,67.33-39,100-58a38.56,38.56,0,0,1,8-3c4.79-1.21,15.39-3.88,24,2,9.31,6.36,9.94,18.36,10,20l6,387v19c-.11,9.9-4.81,19.55-6,22a61.81,61.81,0,0,1-18,22c-4,3-14,9-17,11-2.67,1.78-90.55,47.18-111,57l-.94,100.08c0,1.45.09,2.91.2,4.36.08.43.16.86.25,1.29,73.18-37.91,148.33-75.82,221.49-113.73q1,63,2,126l97-56q-.49-59.51-1-119l77-45q1,59.51,2,119l98-56V1535c9-6.1,22.85-15.51,40-27,26.07-17.47,30.16-20,40-27,22.18-15.87,38.07-29.46,48-38a663.77,663.77,0,0,0,49-46c22.19-23.17,42.39-44.27,62-77,16.83-28.09,25.61-52.07,31-67,6.48-18,14.08-39,18-67A270,270,0,0,0,1799,1095Zm-449.5-53.5c20-11.88,42.26-25.14,68-38,21.18-10.58,33.14-17.12,53-25,17.2-6.82,30.32-9.6,45-10a95.19,95.19,0,0,1,14.87.77,41.45,41.45,0,0,1,30.56,20.12,49.73,49.73,0,0,1,2.57,5.11c1.47,3.4,7.14,17.52,0,44-2.85,10.56-9.26,28.78-33,58-5,6.22-24.08,29.17-58,56-24.08,19-44,30.82-68,45-24.35,14.39-45.44,25.34-61,33q-2-91.5-4-183C1341.81,1046.1,1345.28,1044,1349.5,1041.5Zm259,272c-3.34,11.52-13.06,31.81-42,64-6.16,6.85-27.39,30.2-69,60-29.54,21.16-50,34.77-79.49,50.64-30,16.11-55.93,28.41-75.09,37-2.73-66.17.54-130-2.19-196.11,8.36-4.78,9.63-5.47,10.15-5.75,65.13-35.51,105.4-55.42,105.4-55.42,26.45-13.07,38-18.12,52.58-22.71a165.41,165.41,0,0,1,42.83-7.78,113.77,113.77,0,0,1,18.45.54c15.84,1.55,30.1,9.27,38.27,21.21a19.72,19.72,0,0,1,2.09,3.34C1612.39,1266.16,1616.89,1284.62,1608.5,1313.5Z"/><path class="cls-1" d="M976,1175c-.34-21.58,1-43.72,1-56,0-13.07,0-20.79,0-53v-35l-1-3-22-13L810,931,587,802c-3.34-2.33-8.11-5.51-14-9-55.38-32.84-146.93-55.62-237-18C232.92,818.06,196.76,913.09,191,929v291c2.18,7.8,6.5,32.5,6.5,32.5A742.84,742.84,0,0,0,347,1574l630,364q.25-238.76.5-477.5l-311-179v95l197,114v277a520.65,520.65,0,0,1-65-20c-10.33-3.93-50.89-19.75-117-62-28.18-18-67.27-43.2-112-82-28.85-25-87.25-76.42-141-159-22-33.74-84-135.38-104-273-2.89-19.82-11.08-82.87,6-155,6.84-28.86,15.7-50.66,31-71,7.37-9.8,25.82-33.72,59-48,6.53-2.81,18.13-7.18,37-10,18.67-2.79,65.6-7.2,146,22,12.35,4.48,37.22,14,79,36a1113.07,1113.07,0,0,1,178,117C893.64,1089.1,932.79,1129.25,976,1175Z"/><path class="cls-1" d="M1732.5,494.5l-1262-111-160,92,780,455,101-58-263-150,277-179,471,49,113-65Zm-891,184-396-221,622,66Z"/></g><g id="Capa_3" data-name="Capa 3"><polygon class="cls-2" points="1022.5 1028.5 1808.5 571.5 1808.5 1484.29 1016.5 1937.5 1022.5 1028.5"/></g><g id="Capa_5" data-name="Capa 5"><polygon class="cls-2" points="217.5 529.5 1003.5 75.5 1789.5 527.5 1000.5 982.85 217.5 529.5"/></g><g id="Capa_4" data-name="Capa 4"><polygon class="cls-2" points="977.5 1028.5 191.5 571.5 191.5 1484.29 977.5 1937.5 977.5 1028.5"/></g></svg>