<svg id="Capa_1" data-name="Capa 1" xmlns="http://www.w3.org/2000/svg" viewBox="0 0 1280 1024"><defs><style>.cls-1{fill:#3bd1cd;}</style></defs><path class="cls-1" d="M1064.14,287a43.31,43.31,0,0,0-8-24c-2.3-3.2-9.5-12.9-23-16-10.4-2.39-25.34.56-29,2-43,17-70.34,27.18-81,30-48.64,12.88-93,3-98,2-8.7-1.74-45.66-10.53-71-24a90.61,90.61,0,0,0-27-9c-11.82-2-18.5-.6-21,0a43.42,43.42,0,0,0-19,10,42,42,0,0,0-11,17,50.37,50.37,0,0,0-2,8c-2.33,15.34-.3,251.46,0,286a251.22,251.22,0,0,0,11,65c4.72,15.27,9.84,31.82,22,50,23.89,35.71,57.27,51.26,70,57,27.86,12.55,51.42,14.49,72,16,24.65,1.8,61.11,4.47,103-13,14.56-6.07,49.93-21.35,76-58,20.38-28.64,27.06-59,31-77a256,256,0,0,0,5-33C1070,509.32,1064.68,306.47,1064.14,287Zm-333,146.5a49.5,49.5,0,1,1,49.5,49.5A49.5,49.5,0,0,1,731.14,433.5Zm236,202.5a112.71,112.71,0,0,1-34,29c-20.93,11.54-39.85,13-54,14-13.84.94-38.52,2.33-66-10a106.5,106.5,0,0,1-61-69h234A113.42,113.42,0,0,1,967.14,636Zm-10.5-153a49.5,49.5,0,1,1,49.5-49.5A49.5,49.5,0,0,1,956.64,483Z"/><path class="cls-1" d="M789.19,86.48a31.74,31.74,0,0,0-4.69-16.64A40.87,40.87,0,0,0,779.14,63c-12.65-13-29.68-13-33-13-7.16,0-12.54,1.68-20,4-8.65,2.69-13.52,5.46-21,9-10.4,4.93-18.11,7.71-30,12-14,5-29,10.44-49,13-15.12,1.93-26.77,1.44-37,1a216.14,216.14,0,0,1-41-5c-12.38-2.82-21.16-6.09-37-12-15.08-5.63-14.91-6.37-30-12-32.29-12.06-41.39-10.37-47-9a39,39,0,0,0-18,9c-3.35,2.88-9.64,8.4-13,18a38.94,38.94,0,0,0-2,16c0,138.5.15,239.34,0,264a375.49,375.49,0,0,0,2,39c1.56,15.18,3.3,23,4,26a179.58,179.58,0,0,0,10,30c3.19,7.36,5.39,13.42,8,18,5.72,2.77,14.24,6.48,23,11,5,2.58,16.55,8.54,28,15a575.44,575.44,0,0,1,49,31c11.78,8.33,25.78,18.93,41,32l69-2q-.5-57.5-1-115h-155a111.76,111.76,0,0,1,33-51c16.79-14.59,33.54-20,43-23s34.94-10.6,65-3a106.29,106.29,0,0,1,15,5q.51-53.5,1-107c1-8.37,4.55-28.59,21-45a75.54,75.54,0,0,1,20-14,79.77,79.77,0,0,1,48-9c3,.37,8.36,1.5,20,7s26.92,13.06,45,23ZM508.14,285a49,49,0,1,1,49-49A49,49,0,0,1,508.14,285Z"/><path class="cls-1" d="M643.14,741c-3.38-30.91-13.76-53-20-66-14.58-30.38-31.9-49.55-47-66-35.81-39-71.43-61.15-99-78s-43.91-26.84-69-36c-21.16-7.73-74.26-26.38-140-14,0,0-47.35,8.92-88,36a155.26,155.26,0,0,0-22,18,120.39,120.39,0,0,0-14,17,116,116,0,0,0-19,56c-.44,7.76-1.3,22.61,5,39,8.74,22.71,26.24,35.45,35.16,40.9,1,.62,2,1.2,3.11,1.74,4.69,2.39,11.19,5.85,18.73,10.36,14,8.33,21.07,12.65,28,20,4.28,4.54,11.19,12,15,24a48.87,48.87,0,0,1,2,24c-.84,4.7-2.07,7.11-5,14-3.17,7.49-9.3,21.94-12,32-3.51,13.11-2.59,24-2,31,2.52,29.69,20.54,52.57,30.09,62.94a46.44,46.44,0,0,0,8,6.86,317.13,317.13,0,0,0,32,19.2c5.92,3.1,33.72,17.4,75,28,18.52,4.75,39,10,67,11,15.54.55,39.94,1.23,70-7,14.45-4,52.28-14.79,86-48a190.46,190.46,0,0,0,33-44c14.69-26,20.1-48.51,23-61C641.21,795.51,646.52,771.8,643.14,741Zm-421.5-95a37.5,37.5,0,1,1,37.5-37.5A37.5,37.5,0,0,1,221.64,646Zm96,233a44.5,44.5,0,1,1,44.5-44.5A44.5,44.5,0,0,1,317.64,879Zm38-265a37.5,37.5,0,1,1,37.5-37.5A37.5,37.5,0,0,1,355.64,614Zm106,54a37.5,37.5,0,1,1,37.5-37.5A37.5,37.5,0,0,1,461.64,668Zm80,108a37.5,37.5,0,1,1,37.5-37.5A37.5,37.5,0,0,1,541.64,776Z"/></svg>