<svg id="Capa_1" data-name="Capa 1" xmlns="http://www.w3.org/2000/svg" viewBox="0 0 1280 1024"><defs><style>.cls-1,.cls-2{fill:#3bd1cd;}.cls-2{stroke:#3bd1cd;stroke-miterlimit:10;}</style></defs><path class="cls-1" d="M602.49,96c-214.84,0-389,165.65-389,370s174.16,370,389,370,389-165.66,389-370S817.33,96,602.49,96Zm-.62,713c-198.48,0-359.38-153.57-359.38-343s160.9-343,359.38-343S961.24,276.54,961.24,466,800.34,809,601.87,809Z"/><path class="cls-1" d="M897.39,696.08,1002,794.9c12.68,12,25.63,23.72,38.06,36,7.07,6.95,9.64,14.94,9.39,25.39-.11,4.53.68-1.77-.3,2.37-.34,1.43-.65,2.85-1.07,4.25s-.84,2.52-1.3,3.77c1.21-3.3-.07.06-.37.67-1.33,2.67-3,5.05-4.54,7.59s2.46-2.85.33-.39c-.44.51-.85,1-1.29,1.53a58,58,0,0,1-5.05,5.11c-.14.13-3.6,2.9-1.32,1.19-1.22.92-2.51,1.77-3.81,2.57a37.71,37.71,0,0,1-9.13,4.25c-6.12,1.87-9.68,2.25-16.81,1.79A35.42,35.42,0,0,1,991.86,887a42.53,42.53,0,0,1-4-2.51c1.46,1.06-2.86-2.56-3.26-2.93q-5-4.62-9.95-9.3-10-9.35-19.87-18.76Q935.65,835.31,916.59,817c-25.88-24.83-51.73-49.68-78-74.1-5.93-5.52-15.34-5.87-21.21,0-5.59,5.58-6,15.68,0,21.21,48.69,45.29,96,92.07,144.63,137.4,12.27,11.43,25.86,18.38,42.78,19.46,15.37,1,31.71-3.29,44.28-12.27,18.65-13.31,32-34.95,30.35-58.55-1.17-17.3-9-31.8-21.38-43.54l-21.12-20-70.18-66.28c-15.77-14.9-31.31-30.1-47.34-44.72-.28-.25-.54-.51-.81-.76-5.89-5.56-15.37-5.84-21.21,0-5.62,5.62-5.91,15.63,0,21.21Z"/><path class="cls-1" d="M486,245.48v248c0,7.84,6.9,15.36,15,15s15-6.59,15-15v-248c0-7.85-6.9-15.37-15-15s-15,6.59-15,15Z"/><path class="cls-1" d="M575,314.48c-.35-20.56-9.19-41.1-25.42-54-13.76-11-31.34-16.22-48.87-15.71-21.41.62-42.3,9.32-55.82,26.3-12.93,16.22-18,35.68-14.46,56,3.85,22.12,18.06,39.83,38.82,48,17.33,6.8,35.63,10.24,53.65,14.47,2,.47,1.07,1.51-1.11-.56a9.83,9.83,0,0,0,1.9.92c1.41.74,2.71,1.6,4.05,2.45,3.75,2.4-1.42-1.59,1.73,1.33,1.06,1,2.12,1.93,3.13,3,.64.67,1.27,1.35,1.88,2s1.17,1.36,1.73,2.06q-1.53-1.95,0,.08c2.08,3.35,4.74,6.89,5.92,10.7-1.37-4.45-.1-.06.26,1s.75,2.31,1.06,3.48c.2.75.38,1.52.54,2.28s.29,1.64.48,2.45c.75,3.12,0-2.64,0-.37s.38,4.69.34,7.05c0,1.48-.09,3-.25,4.43.26-2.5-.47,2.39-.48,2.41a40.71,40.71,0,0,1-6.48,14.53c-2.38,3.57,1.79-1.59-1.12,1.36-.93,1-1.8,2-2.75,2.89-.62.6-1.24,1.18-1.88,1.75s-1.26,1.09-1.9,1.61c1.45-1.1,1.51-1.17.18-.19-1.82,1.2-3.61,2.41-5.52,3.48-1,.55-4.55,3.08-5.68,2.8.16,0,3.45-1.31,1.56-.67-.74.25-1.47.56-2.2.83s-1.67.58-2.5.85c-1.75.55-3.53,1-5.32,1.4l-2,.41-2.25.36c2-.26,2.06-.29.25-.09-2.86.11-5.68.31-8.55.18.07,0-5-.41-2.35-.09a48.2,48.2,0,0,1-6.73-1.42,45,45,0,0,1-10.48-4.33,62,62,0,0,1-6.25-4c2.58,1.87.27.21-.34-.36-1.13-1.07-2.3-2.09-3.38-3.21a38.87,38.87,0,0,1-2.82-3.2c1.45,1.88-1.29-2.12-1.57-2.6a30.8,30.8,0,0,1-3.61-8.29c-.36-1.29-.66-2.58-.93-3.89-.15-.74-.28-1.48-.4-2.23.23,1.63.25,1.58.07-.13-.06-2.5-.17-5,0-7.46.46-7.85-7.22-15.35-15-15-8.51.38-14.51,6.59-15,15-2.88,49.74,49.73,82,94.7,67.89,16.85-5.31,32-15.76,41.36-30.93,10.53-17,12.64-39.54,5.73-58.34-6.83-18.54-20.49-36.26-39.91-42.55-6.62-2.15-13.74-2.84-20.49-4.48a299,299,0,0,1-33.16-10c3.52,1.3.17.06-.5-.26-.92-.45-1.83-.92-2.71-1.43-1.1-.63-4.8-3.83-1.69-.91a52.3,52.3,0,0,1-5.94-6.06c1.43,1.84,0-.1-.21-.43-.93-1.58-1.94-3.1-2.79-4.73-.21-.41-1.95-4.41-.65-1.17-.31-.77-.6-1.55-.88-2.33a61.16,61.16,0,0,1-1.9-6.67,20,20,0,0,1-.9-4.91c-.24,5,0-.55,0-2,0-.72,0-1.43,0-2.15,0-1,.27-4.09.21-3.6a70.92,70.92,0,0,1,1.81-7.12c.08-.24,1.87-4.61.56-1.73.55-1.21,1.14-2.41,1.78-3.58,1.15-2.12,2.49-4.09,3.82-6.1,1.94-2.93-1.59,1.64-.14.16.53-.54,1-1.18,1.49-1.75a53.74,53.74,0,0,1,4.44-4.49c.77-.7,1.57-1.42,2.4-2-1.65,1.25,2.71-1.66,3.17-1.93,1.24-.73,2.53-1.35,3.79-2,3.64-2-2.33.64,1.49-.67a75,75,0,0,1,8.69-2.51c.79-.17,1.59-.29,2.38-.46q2.61-.4-.53,0c.74-.09,1.47-.16,2.21-.23q3-.25,6.06-.27c1.9,0,3.8.06,5.69.21s5.52,1.47-.22-.12c3.31.91,6.77,1.18,10.08,2.19,1,.31,2,.66,3,1,.62.22,1.25.46,1.86.72q-2.18-.88.31.25c1.33.78,2.71,1.44,4,2.25-.29-.18,3.88,2.66,2.38,1.52a37.72,37.72,0,0,1,3.86,3.51c.42.42,4,4.53,2.77,2.95a47.8,47.8,0,0,1,4.51,7.4c.19.4,1.83,4.49.64,1.3.51,1.35,1,2.71,1.42,4.1a68.52,68.52,0,0,1,1.67,6.93c.08.41.65,3.6.16.75s0,.61.08,1.17c.1,1.21.15,2.42.17,3.64.14,7.84,6.81,15.36,15,15,8-.36,15.15-6.6,15-15Z"/><path class="cls-1" d="M362.6,656.08c20.44-18.72,40.35-38,60.53-57,8.38-7.88,16.6-16,25.61-23.17,3-2.35,6-4.62,8.82-7.18,1.51-1.39,3.67-3.1.5-1.21l-1.07,0c1.73,0,1.56,0-.51-.13-1.63-.76-1.59-.7.09.19l1.37.87c8.09,5.22,15.58,13,22.45,20.67C489,598.7,503,604,514.62,596.68c8.15-5.15,14.76-12.44,21.66-19.09q38.4-37.08,77-73.94c14.2-13.63,28.51-27.16,42.58-40.93a47.27,47.27,0,0,0,3.71-3.78c1.48-1.83.57-.4,0-.13-1.49.67,1.06-.55,1.36-.38-.63-.36-5,.85-5.17-1,.16,1.57,5.25,5.3,6.42,6.49q3.38,3.42,6.73,6.86c8.37,8.51,18.1,19.46,31.48,16.16,7.92-2,13.12-7.77,18.69-13.2q8.66-8.43,17.37-16.79Q767.49,427,798.6,397.08c5.84-5.62,5.65-15.56,0-21.21a15.21,15.21,0,0,0-21.21,0c-28.16,27.11-56.55,54-84.41,81.4l-.59.6c-1.29,1.37-1.83.57.05.19a13.13,13.13,0,0,1,6.17-.07l-1.1-.75q2.82,2.26,1.36,1c-2.89-3.49-6.66-6.56-9.85-9.8-4-4.08-7.9-8.34-12.08-12.25a26.07,26.07,0,0,0-25.11-6.44c-11.12,3-19,13.47-27,21.19q-10.53,10.14-21.07,20.25-41.14,39.51-82.3,79c-5.55,5.33-10.93,10.9-16.57,16.13-1.31,1.22-2.68,2.36-4,3.52-2.83,2.38,2.58-1.33-.52.34-.28.15-2.15,1.67-2.45,1.52l2.21-.9a12.62,12.62,0,0,1,5-.18c2.93.4.31.14-.93-.6a20.18,20.18,0,0,1-2.21-1.47c2.61,2-.19-.59-.69-1.16a161.81,161.81,0,0,0-25.18-22.81c-7.14-5.25-15.62-8.63-24.55-6.39-6.75,1.68-11.24,6-16.3,10.3-8.54,7.32-17.13,14.28-25.38,22-22.92,21.36-45.33,43.24-68.43,64.4-6,5.47-5.56,15.66,0,21.21,5.95,5.95,15.22,5.49,21.21,0Z"/><path class="cls-1" d="M751,380.48l57,1-15-15,3,55c.43,7.82,6.6,15.37,15,15,7.76-.35,15.46-6.61,15-15l-3-55c-.44-8.21-6.51-14.85-15-15l-57-1c-7.85-.14-15.36,7-15,15,.37,8.24,6.59,14.85,15,15Z"/><path class="cls-1" d="M429,706.48q.3-12.68.52-25.34c.15-7.65,1.35-16.07.48-23.66.1-1.5,0-1.19-.25.93a14.82,14.82,0,0,1,.63-2.44q-.6,3.45-4.68,4.53,2.9-.68-.7,0c2.65-.15,5.29-.23,7.94-.27,8.08-.14,16.16,0,24.24.14,1.82,0,3.65.08,5.48.1,1.44,0,1.27,0-.52,0a5.75,5.75,0,0,1-3.49-2.4q-1-2.65-.35-.38-.37-3.6-.25-1.39A19.81,19.81,0,0,0,458,659c-.19,8.59-.22,17.2-.32,25.8q-.33,26.82-.66,53.65c-.1,7.84,7,15.36,15,15,8.22-.37,14.89-6.59,15-15q.33-24.65.61-49.29.13-12.3.3-24.6c.09-7.13.49-14-2.84-20.59-8.76-17.42-32-14-48.29-13.84-5.87.05-12.75-.42-18.42,1.25-11.36,3.35-17.12,12.94-18.23,24.15-.78,7.87-.43,16-.58,23.9q-.26,13.51-.55,27c-.18,7.85,7,15.35,15,15,8.28-.37,14.81-6.59,15-15Z"/><path class="cls-1" d="M545,756.48c.78-34.86.49-69.74.87-104.6,0-2.7,0-5.39.11-8.08a11.63,11.63,0,0,0,0-1.32c-.17-1.91-1.08,2.15,0-.27,1.52-3.39-.08,0,0-.07.62-.44-6.53,4.51-3.71,3.2,1.62-.75-1,.14-1.34.14.7,0,1.42-.08,2.11-.11,5.94-.25,11.88-.25,17.82-.2,3.77,0,7.54.08,11.3.16,2,0,4.07.1,6.1.13a4.27,4.27,0,0,0,1.28,0c-1.38.74-3.84-1.07-4.56-2a8.24,8.24,0,0,1-1-1.9c.35.76,0,1.93.12,0,.16-2.48-.11.07-.14.68-.07,1.53,0,3.08-.06,4.61q-.06,6.55-.05,13.12,0,17,.06,34c.08,23.81.34,47.63,0,71.44-.1,7.84,7,15.36,15,15,8.22-.37,14.89-6.59,15-15,.3-22.71.06-45.43,0-68.14q-.06-18.66-.07-37.33c0-10,1.78-21.86-2.84-31-4.93-9.8-14.66-13.41-25-13.58-8.2-.12-16.39-.33-24.59-.25-6.25.07-13.19-.27-19.08,2-11,4.19-15.92,14.31-16.37,25.51-.71,17.55-.35,35.21-.47,52.77-.14,20.35-.07,40.71-.53,61.06-.17,7.85,7,15.35,15,15,8.28-.37,14.81-6.59,15-15Z"/><path class="cls-1" d="M661,755.48c.55-24.72.31-49.47.4-74.18q.18-53.41.39-106.84c.05-9.1.33-18.24.2-27.34,0-.19,0-.38,0-.56-.15-2.4-1.17,2.53,0-.35.55-1.37.32-.66.21-.66.16,0-4.26,3.76-4.52,4,.29-.21,2.72-.55.29-.17-2.2.33-.25.08.24.08,5.44,0,10.89-.28,16.34-.26,3.64,0,7.27.06,10.91.13,1.87,0,3.74.07,5.6.12,1.08,0,2.17.05,3.25.06.9,0,1.54.54.55,0-1.92-1-3.33-1.13-4.54-3.13-.82-1.37-.15-.22,0,.33-.88-4.2-.12-2.24-.25-1.39a18.67,18.67,0,0,0-.06,2.59c-.6,31.61-.06,63.28,0,94.9.07,33.7.26,67.41.06,101.11,0,1.87,0,3.73,0,5.6-.1,7.84,7,15.36,15,15,8.22-.37,14.89-6.59,15-15,.42-32.29.07-64.59,0-96.87-.06-34.37-.32-68.75,0-103.12a53.23,53.23,0,0,0-.57-9.83c-1.65-9.53-9.36-17.16-18.62-19.48-7.71-1.94-16.76-1-24.65-1-5.82,0-11.66,0-17.47.23-9.61.46-18.34,3.91-23.18,12.79-2.59,4.74-3.39,10.16-3.5,15.49-.08,3.79-.08,7.59-.1,11.38-.23,34.23-.3,68.46-.41,102.68-.11,30.08-.08,60.17-.42,90.24,0,1.17,0,2.34,0,3.51-.17,7.85,7,15.35,15,15,8.28-.37,14.82-6.59,15-15Z"/><path class="cls-1" d="M775,725.48c.51-22.53.28-45.08.36-67.61q.2-53.08.36-106.17.07-18.44.18-36.87c0-3,.15-5.91.09-8.85a4.21,4.21,0,0,0,0-.5c-.15-2-1.06,2.22,0-.27.48-1.14-.14-1.17.21-.66,1,1.43-7.14,5-3.88,3.79,1.79-.64-1.09.14-1.34.14.55,0,1.11-.08,1.66-.09,5.3-.07,10.6-.26,15.91-.24,3.33,0,6.67.05,10,.11,1.37,0,10.44,1.13,11,.23-.79,1.19-4.39-1.82-5-2.44-.07-.07-.95-2.44-.48-.9.53,1.74-.32-1.61-.15-1.62s0,2.83,0,3.15c-.1,5.17-.07,10.34-.08,15.52q0,26.07.05,52.15c.07,35,.29,69.95.1,104.92,0,2.07,0,4.14-.06,6.21-.1,7.84,7,15.36,15,15,8.22-.37,14.89-6.59,15-15,.44-33.93,0-67.88,0-101.8q-.06-28.32-.07-56.63,0-9.15.06-18.31a55.05,55.05,0,0,0-.57-10.08c-1.6-9.23-9-16.88-17.95-19.31-7.4-2-16.12-1.11-23.71-1.18-5.9-.05-11.8-.05-17.69.17-9.28.34-17.35,2.69-23,10.55-3.65,5-4.83,11.16-5,17.28-.26,8.86-.15,17.75-.19,26.61q-.24,53.06-.37,106.1c-.1,27.82-.06,55.64-.38,83.45,0,1,0,2.1,0,3.15-.17,7.85,7,15.35,15,15,8.28-.37,14.82-6.59,15-15Z"/><path class="cls-2" d="M934.21,465.93C934.21,639.93,785.92,781,603,781s-331.22-141.05-331.22-315,148.29-315,331.22-315S934.21,291.94,934.21,465.93Zm-331.75-292c-169,0-306,130.76-306,292.05S433.46,758,602.46,758s306-130.76,306-292.06S771.46,173.88,602.46,173.88Z"/></svg>