<svg id="Capa_1" data-name="Capa 1" xmlns="http://www.w3.org/2000/svg" viewBox="0 0 1280 1024"><defs><style>.cls-1{fill:#3bd1cd;stroke:#3bd1cd;stroke-miterlimit:10;stroke-width:0.75px;}</style></defs><circle class="cls-1" cx="621.79" cy="118.74" r="64"/><circle class="cls-1" cx="404.29" cy="709.24" r="62.5"/><circle class="cls-1" cx="642.79" cy="776.74" r="67"/><circle class="cls-1" cx="843.29" cy="736.24" r="63.5"/><path class="cls-1" d="M730.2,221.1c-.91-3.72-1.91-7.84-5.34-11.74a18.2,18.2,0,0,0-7.48-5.34,20.21,20.21,0,0,0-7.47-1.07H537.15a20.23,20.23,0,0,0-7.48,1.07,18.15,18.15,0,0,0-7.47,5.34c-3.44,3.9-4.44,8-5.34,11.74a39.22,39.22,0,0,0-1.07,10.68V336.42c11.68.37,21.14.22,27.76,0l1.24,0V278.74h14v57.54l1.85.14c6.61.57,13,1.12,20.28,4.27,5.63,2.43,9.45,5.54,17.09,11.75a126.49,126.49,0,0,1,12.81,11.74c5.36,5.66,12,16.56,12.71,15.86a122.93,122.93,0,0,1,12.7-15.86,127.44,127.44,0,0,1,12.82-11.74c7.63-6.21,11.45-9.32,17.08-11.75,6.33-2.73,12-3.51,17.66-4V278.74h14v57.47l5.71.21c6.62.22,16.09.37,27.76,0V231.78A39.29,39.29,0,0,0,730.2,221.1Z"/><path class="cls-1" d="M606.79,398.74c-2.26-9.3-7.11-15.3-11-20s-9-10.88-18-15c-6.34-2.91-11.52-3.36-19-4a86.22,86.22,0,0,0-29,2c-10.17,2.55-15.17,6-25,11-9.35,4.76-24,9-41,18a13.85,13.85,0,0,0-4.27,3H581.79v13h-123v5.46a1.79,1.79,0,0,0,.29,1l1.07,1.6a2.15,2.15,0,0,0,1.79,1H604.51a3.29,3.29,0,0,0,3.28-3A42.69,42.69,0,0,0,606.79,398.74Z"/><path class="cls-1" d="M641.79,398.74c2.26-9.3,7.11-15.3,11-20s9-10.88,18-15c6.34-2.91,11.52-3.36,19-4a86.22,86.22,0,0,1,29,2c10.17,2.55,15.17,6,25,11,9.35,4.76,24,9,41,18a13.85,13.85,0,0,1,4.27,3H666.79v13h123v5.46a1.72,1.72,0,0,1-.3,1l-1.06,1.6a2.15,2.15,0,0,1-1.79,1H644.07a3.29,3.29,0,0,1-3.28-3A42.69,42.69,0,0,1,641.79,398.74Z"/><path class="cls-1" d="M474.29,286.74c-14.08,0-25.5,10.71-25.5,23.93A23.09,23.09,0,0,0,455.6,327l-38.81,85.79,19.51-.52,34.84-77.8a27.19,27.19,0,0,0,3.15.19c14.08,0,25.5-10.71,25.5-23.94S488.37,286.74,474.29,286.74Z"/><path class="cls-1" d="M775.29,286.74c14.08,0,25.5,10.71,25.5,23.93A23.09,23.09,0,0,1,794,327l38.81,85.79-19.51-.52-34.84-77.8a27.19,27.19,0,0,1-3.15.19c-14.08,0-25.5-10.71-25.5-23.94S761.21,286.74,775.29,286.74Z"/><rect class="cls-1" x="391.79" y="441.74" width="464" height="111" rx="4.62"/><path class="cls-1" d="M817.58,860.26q-6-15.88-12.07-31.79a291,291,0,0,1-97.8,41.27H576.41a291.55,291.55,0,0,1-48-14.08c-22.38-8.71-47.65-30.73-61.6-39.92-4,10.59-1,28.4-5,39,15.58,8.92,34.34,22.81,56.18,31.19a403.39,403.39,0,0,0,57.82,17.37v88.44h134V902.88a405.64,405.64,0,0,0,107.79-42.62Z"/><path class="cls-1" d="M547.79,776.74c-14,5-24.57,8-45,13-14.05,3.41-28.57,5.8-39.92,8.29H349.1a252.47,252.47,0,0,1-41.6-12.2c-15.32-6-32.2-19.12-44.57-28.31-1.78,10.9-3.2,21.81-4.57,32.68,11.65,7.26,25,16.07,40.11,21.86a351.83,351.83,0,0,0,50.1,15.05v76.63H464.68v-77c13.54-3.21,29.57-6.22,46.11-11,21.41-6.2,33.5-8.27,47-16C554.31,790.55,551.27,785.92,547.79,776.74Z"/><path class="cls-1" d="M1009.51,779.47a291,291,0,0,1-97.8,41.27H780.41A292.69,292.69,0,0,1,735,807.65c-2.09,10.44-4.9,21.16-9.71,30.54a403.93,403.93,0,0,0,54.49,16.11v88.44h134V853.88a405.64,405.64,0,0,0,107.79-42.62Q1015.55,795.38,1009.51,779.47Z"/><path class="cls-1" d="M771.79,679.74a49.44,49.44,0,0,1,11-7v-93h-320v62.71c23.17,12.85,39,38.6,39,68.29,0,27.55-13.64,51.71-34.13,65.32-.25.48-.51,1-.75,1.44,25.32-.84,51.51,0,75.89-5.23,0-.18,0-.35,0-.53a99,99,0,1,1,194,27.91v.09l42,2a91,91,0,0,1-21-30c-1.61-3.76-12.24-29.47-4-60C756.19,702.85,759.88,689.75,771.79,679.74Z"/></svg>