<svg xmlns="http://www.w3.org/2000/svg" viewBox="0 0 804 581"><defs><style>.cls-1{fill:#3bd1cd;stroke:#3bd1cd;stroke-miterlimit:10;stroke-width:0.75px;}</style></defs><g id="Capa_4" data-name="Capa 4"><path class="cls-1" d="M748,364.16c-1.91,10.39-3.23,20.94-5.82,31.16A182.69,182.69,0,0,1,589.72,532a209.3,209.3,0,0,1-28.28,2.13q-124.41.24-248.82.07c-17.87,0-29.58-8.18-33.71-23a30.69,30.69,0,0,1,27.79-38.78c7.14-.37,14.32-.16,21.48-.16q116.79,0,233.58,0c54.81-.1,99.39-31.55,117.71-82.6,26.16-72.94-27.32-154.92-104.51-160.1q-11.75-.8-23.54-.8-198.57-.06-397.15,0h-10c2.87,3,4.48,4.77,6.16,6.46,26,26,52,51.9,77.86,78,13.11,13.23,14.4,29.91,3.76,43.05A30.76,30.76,0,0,1,189.24,361a78.93,78.93,0,0,1-7.14-6.55q-65.46-65.4-130.87-130.84c-17.41-17.42-17.42-34.26,0-51.64Q117.59,105.55,184,39.17C197.18,26,213.93,24.32,227.06,34.5a30.55,30.55,0,0,1,5.41,43.21,80.43,80.43,0,0,1-6.55,7.14q-37.47,37.53-75,75c-1.77,1.77-3.47,3.62-6.66,7h9.33q202.38,0,404.77-.05c25.44,0,50.25,3.29,73.78,13.17C687.51,203.18,724.1,243.57,741,301.28c3.34,11.43,4.75,23.42,7,35.15Z"/></g></svg>